<?xml version="1.0" encoding="utf-8"?>
<!-- Generator: Adobe Illustrator 16.0.0, SVG Export Plug-In . SVG Version: 6.00 Build 0)  -->
<!DOCTYPE svg PUBLIC "-//W3C//DTD SVG 1.1//EN" "http://www.w3.org/Graphics/SVG/1.1/DTD/svg11.dtd">
<svg version="1.1" id="Calque_1" xmlns="http://www.w3.org/2000/svg" xmlns:xlink="http://www.w3.org/1999/xlink" x="0px" y="0px"
	 width="388px" height="358px" viewBox="0 0 388 358" enable-background="new 0 0 388 358" xml:space="preserve">
<g>
	<path fill-rule="evenodd" clip-rule="evenodd" fill="#FEFEFE" d="M194.443,359c-63.146,0-126.292-0.035-189.437,0.096
		c-3.406,0.007-4.106-0.647-4.103-4.087C1.02,238.382,1.028,121.754,0.877,5.127C0.873,1.18,2.101,0.93,5.371,0.932
		c126.458,0.081,252.916,0.087,379.373-0.027c3.585-0.003,4.359,0.71,4.355,4.337c-0.12,116.461-0.125,232.922,0.014,349.383
		c0.004,4.021-1.209,4.464-4.733,4.457C321.067,358.97,257.755,359,194.443,359z"/>
	<path fill-rule="evenodd" clip-rule="evenodd" fill="#182A7C" d="M178.649,230.874c-4.352,1.024-3.452-2.102-3.452-4.427
		c-0.01-37.979-0.003-75.956-0.002-113.935c0-10.827-0.099-21.655,0.052-32.48c0.042-2.953-0.628-4.18-3.841-3.998
		c-4.815,0.272-9.668,0.273-14.484,0.011c-3.267-0.179-4.253,0.813-4.188,4.141c0.213,10.989,0.087,21.985,0.087,32.979
		c0.001,40.477,0.017,80.953-0.01,121.43c-0.009,12.909-8.211,24.087-19.579,27.087c-3.014,0.795-4.417,0.697-4.411-3.18
		c0.109-67.128,0.103-134.256,0.007-201.384c-0.005-3.302,0.93-4.189,4.178-4.175c26.984,0.12,53.969,0.061,80.953,0.086
		c4.36,0.004,8.649,0.789,12.751,2.175c11.094,3.746,16.814,9.345,16.547,22.193c-0.503,24.143-0.139,48.303-0.135,72.455
		c-0.631,1.117-1.744,1.554-2.867,1.825c-6.142,1.486-11.287,4.779-16.188,8.612c-1.272,0.995-2.549,3.072-4.645,1.098
		c-1.313-2.49-0.996-5.195-1-7.834c-0.029-23.278,0.002-46.557-0.025-69.835c-0.009-6.837-0.277-7.126-6.924-7.112
		c-12.742,0.024-11.86-0.974-11.873,11.886c-0.03,29.431-0.006,58.861-0.017,88.293c-0.001,2.656,0.147,5.323-0.312,7.955
		c-0.38,2.264-2.012,3.386-3.973,4.045c-3.982,1.338-6.211,4.317-7.687,8.001c-3.034,7.573-5.763,15.251-7.689,23.194
		c-0.518,2.136-0.515,4.266-0.203,6.439C179.948,227.999,180.55,229.767,178.649,230.874z"/>
	<path fill-rule="evenodd" clip-rule="evenodd" fill="#182A7C" d="M23.988,218.189c0-28.653-0.083-57.307,0.094-85.958
		c0.025-4.041-0.829-5.938-5.124-5.179c-3.719,0.657-5.369-0.571-5.048-4.736c0.395-5.134,0.246-10.328,0.029-15.483
		c-0.123-2.91,0.919-3.933,3.708-3.593c1.149,0.141,2.35-0.111,3.492,0.055c3.516,0.51,4.498-0.938,4.475-4.416
		c-0.146-21.821-0.054-43.645-0.102-65.467c-0.01-4.394,0.775-8.557,2.382-12.652c3.372-8.598,9.521-12.893,18.792-12.794
		c7.162,0.076,14.327,0.086,21.489-0.015c2.827-0.04,4.222,0.636,4.037,3.909c-0.328,5.806,1.995,13.408-0.874,16.968
		c-2.991,3.709-10.911,0.96-16.668,1.133c-6.791,0.204-6.797,0.048-6.797,6.847c-0.001,20.49,0.137,40.982-0.112,61.469
		c-0.053,4.312,1.251,5.181,5.289,5.097c12.156-0.254,12.16-0.076,12.154,11.932c-0.005,10.903-0.005,10.903-10.666,10.908
		c-6.603,0.004-6.653,0.004-6.655,6.636c-0.015,49.477-0.201,98.953,0.136,148.427c0.079,11.521-7.54,22.627-21.554,27.348
		c-3.66,1.232-2.429-1.594-2.434-2.977c-0.065-19.49-0.043-38.981-0.042-58.472C23.989,237.513,23.988,227.851,23.988,218.189z"/>
	<path fill-rule="evenodd" clip-rule="evenodd" fill="#EC7E04" d="M178.649,230.874c-2.18-12.693,4.238-23.472,7.708-34.923
		c1.862-6.143,6.827-8.07,12.125-9.753c2.117-5.442,6.355-9.215,10.339-13.201c3.855-3.86,8.329-7.045,12.021-11.078
		c6.039-6.587,13.491-10.562,22.281-12.066c8.089,0.384,16.223,1.072,23.58-3.484c5.217-3.989,17.68-5.122,22.768-2.07
		c6.305,4.451,13.108,7.509,21.001,7.528c8.042-0.393,16.275-1.674,22.811,4.92c11.225,6.25,15.647,18.042,22.349,27.895
		c2.638,3.879,5.86,7.111,8.637,10.737c8.812,11.512,14.595,24.527,16.745,38.97c2.305,15.475,0.185,30.486-5.073,45.131
		c-1.35,3.76-2.557,7.554-2.903,11.573c-0.46,5.327-4.601,8.322-7.828,11.786c-2.316,2.486-4.462,4.919-5.144,8.333
		c-0.409,2.048-1.49,3.832-2.953,5.119c-12.438,10.942-24.252,22.829-40.364,28.544c-15.468,5.485-31.271,8.983-47.841,7.158
		c-2.142-0.236-4.441-0.345-6.343-1.219c-6.776-3.115-13.778-5.209-20.977-7.229c-7.337-2.059-14.603-5.61-20.702-11.188
		c-13.027-11.911-26.121-23.447-33.837-39.999c-5.235-11.23-8.239-22.734-8.973-34.972c-0.18-3.003-0.786-5.913-1.77-8.767
		c-0.733-2.126-0.67-4.276,0.625-6.225C179.312,238.815,179.261,234.891,178.649,230.874z"/>
	<path fill-rule="evenodd" clip-rule="evenodd" fill="#182A7C" d="M82.636,262.14c0-1.977,0-3.449,0-4.923
		c0.001-66.32,0.056-132.641-0.114-198.961c-0.012-4.543,1.239-5.701,5.522-5.328c4.465,0.39,9.011,0.351,13.483,0.005
		c3.542-0.274,4.378,1.205,4.046,4.271c-0.125,1.152-0.021,2.33-0.02,3.497c0.016,59.155,0.014,118.31,0.08,177.465
		c0.005,4.719-1.319,8.897-4.207,12.509C96.696,256.591,90.274,259.814,82.636,262.14z"/>
	<path fill-rule="evenodd" clip-rule="evenodd" fill="#182A7C" d="M333.282,156.746c-6.952-4.656-15.205-3.288-22.811-4.92
		c-0.016-31.636,0.024-63.271-0.124-94.904c-0.017-3.587,1.17-3.858,4.006-2.821c4.225,1.547,8.395,3.146,12.1,5.79
		c4.477,3.195,7.135,7.273,7.125,12.966c-0.047,27.473-0.033,54.945-0.054,82.418C333.524,155.766,333.367,156.256,333.282,156.746z
		"/>
	<path fill-rule="evenodd" clip-rule="evenodd" fill="#182A7C" d="M289.471,144.298c-7.791-1.532-15.245,0.655-22.769,2.068
		c-0.082-13.986-0.2-27.975-0.239-41.962c-0.043-15.663,0.131-31.329-0.115-46.988c-0.065-4.158,1.38-4.421,4.478-3.033
		c3.029,1.356,6.16,2.543,9.034,4.177c6.438,3.658,9.775,9.121,9.729,16.757C289.445,98.31,289.496,121.304,289.471,144.298z"/>
	<path fill-rule="evenodd" clip-rule="evenodd" fill="#182A7B" d="M94.216,30.009C82.63,30.008,82.63,30.008,82.638,18.529
		C82.645,7.955,82.645,7.955,93.6,7.955c12.127,0,12.127,0,12.129,11.973c0.002,10.084,0.002,10.084-10.018,10.082
		C95.213,30.009,94.714,30.01,94.216,30.009z"/>
	<path fill-rule="evenodd" clip-rule="evenodd" fill="#22317B" d="M133.551,29.855c-4.479,1.244-5.929-1.041-5.421-6.047
		c0.434-4.275,0.185-8.631,0.078-12.947c-0.052-2.071,0.518-3.104,2.773-2.953c2.151,0.143,4.327-0.072,6.474,0.099
		c5.183,0.412,7.037,3.249,5.294,8.103c-0.378,1.054-1.064,1.684-0.282,3.076c3.84,6.836,1.655,10.502-6.147,10.668
		C135.656,29.867,134.991,29.855,133.551,29.855z"/>
	<path fill-rule="evenodd" clip-rule="evenodd" fill="#1A2677" d="M242.512,19.737c3.27,3.204,5.188,6.292,6.979,9.586
		c-3.285,1.543-3.641-1.521-4.922-3.034c-2.148-2.54-3.02-6.395-7.551-6.355c-2.698,0.024-4.127,0.578-3.701,3.559
		c0.139,0.979,0.129,2.009-0.008,2.987c-0.16,1.158,0.699,3.206-1.258,3.128c-1.857-0.075-1.045-2.106-1.068-3.249
		c-0.096-4.988-0.072-9.98,0.012-14.97c0.02-1.182-0.69-3.208,1.201-3.255c4.441-0.107,8.994-1.044,13.313,0.692
		c2.1,0.843,2.679,2.821,2.71,4.935C248.27,17.126,246.13,18.748,242.512,19.737z"/>
	<path fill-rule="evenodd" clip-rule="evenodd" fill="#28347F" d="M164.876,9.594c-3.23,1.037-6.657,0.517-9.957,0.411
		c-3.078-0.098-3.017,1.565-3.024,3.735c-0.007,2.204,0.05,3.965,3.06,3.708c2.309-0.196,4.647-0.063,6.973-0.041
		c0.76,0.007,1.885-0.34,1.971,0.828c0.115,1.576-1.219,1.182-2.13,1.201c-1.66,0.035-3.349,0.204-4.977-0.025
		c-3.917-0.552-5.18,0.925-4.973,4.889c0.154,2.945,1.132,3.69,3.829,3.537c3.265-0.187,6.548-0.045,10.607-0.045
		c-2.311,1.691-14.948,2.811-16.293,1.935c-1.217-0.792-0.827-2.073-0.834-3.179c-0.033-5.148-0.019-10.298,0.002-15.446
		c0.006-1.421-0.464-3.171,1.931-3.167c4.591,0.008,9.183,0.002,13.774,0.002C164.848,8.489,164.862,9.041,164.876,9.594z"/>
	<path fill-rule="evenodd" clip-rule="evenodd" fill="#222F7B" d="M206.904,24.058c-2.857-8.037,0.105-15.084,6.926-16.242
		c4.649-0.79,8.637,0.389,11.207,4.647c2.375,3.938,2.115,10.363-0.662,13.735c-3.354,4.073-7.572,5.075-12.462,2.946
		c-0.346-0.906,0.178-1.403,0.853-1.83c1.383-0.647,2.922-0.514,4.371-0.842c2.868-0.65,4.738-2.375,5.291-5.274
		c0.619-3.255,0.264-6.36-2.51-8.604c-3.137-2.539-7.808-1.28-9.602,2.444c-1.118,2.321-0.845,4.873-1.29,7.311
		C208.637,23.314,208.342,24.402,206.904,24.058z"/>
	<path fill-rule="evenodd" clip-rule="evenodd" fill="#22307B" d="M202.048,9.042c-2.665,1.47-5.585,1.068-8.373,0.955
		c-2.849-0.116-3.745,0.848-3.658,3.685c0.078,2.562,0.343,4.039,3.503,3.83c2.306-0.151,4.886-0.86,7.309,0.922
		c-1.926,2.188-4.269,1.371-6.168,1.171c-3.876-0.407-4.975,1.063-4.658,4.748c0.149,1.741,1.07,5.07-0.99,5.1
		c-2.408,0.035-1-3.163-1.257-4.922c-0.238-1.63-0.053-3.321-0.051-4.986C187.722,6.126,187.912,5.979,202.048,9.042z"/>
	<path fill-rule="evenodd" clip-rule="evenodd" fill="#2D3A85" d="M184.485,29.219c-5.2,1.126-9.255,0.543-13.259,0.583
		c-1.376,0.014-1.318-1.235-1.322-2.206c-0.021-5.797-0.027-11.593-0.004-17.39c0.004-0.928-0.196-2.166,1.255-2.191
		c1.415-0.025,1.392,1.154,1.396,2.136c0.021,4.306,0.224,8.627-0.062,12.914c-0.242,3.628,0.788,5.176,4.655,4.788
		C179.131,27.653,181.368,27.085,184.485,29.219z"/>
	<path fill-rule="evenodd" clip-rule="evenodd" fill="#142174" d="M250.812,8.362c6.172,0,11.765,0,17.766,0
		c-0.497,0.779-0.79,1.49-0.955,1.462c-6.659-1.149-7.165,2.691-6.651,7.797c0.33,3.298,0.09,6.655,0.049,9.986
		c-0.012,0.921,0.156,2.226-1.35,2.053c-1.015-0.117-0.984-1.178-0.99-1.982c-0.025-4.164-0.325-8.355,0.055-12.483
		c0.384-4.183-1.008-5.851-5.174-5.187C252.77,10.134,251.895,10.089,250.812,8.362z"/>
	<path fill-rule="evenodd" clip-rule="evenodd" fill="#404A83" d="M213.246,27.859c-0.445,0.429-0.889,0.856-1.332,1.285
		c-2.729-0.653-4.366-2.381-5.01-5.087c1.016-0.461,1.052-1.466,1.306-2.35C210.811,23.004,212.109,25.364,213.246,27.859z"/>
	<path fill-rule="evenodd" clip-rule="evenodd" fill="#FEFEFE" d="M220.842,161.919c-0.684,2.928-2.931,4.661-4.965,6.583
		c-5.714,5.397-12.236,10.045-16.051,17.228c-0.164,0.307-0.885,0.317-1.345,0.468c-0.097-13.318-0.252-26.637-0.278-39.955
		c-0.043-22.159,0.068-44.319-0.071-66.478c-0.021-3.444,0.866-4.755,4.435-4.518c4.313,0.286,8.674,0.285,12.986,0.003
		c3.438-0.226,4.528,0.773,4.522,4.366c-0.04,26.154,0.14,52.309,0.283,78.464C220.365,159.36,219.803,160.754,220.842,161.919z"/>
	<path fill-rule="evenodd" clip-rule="evenodd" fill="#FEFEFE" d="M333.572,171.396c1.386-0.02,2.137,0.954,2.663,1.971
		c5.589,10.794,12.769,20.387,20.32,29.942c11.658,14.753,16.209,32.208,14.062,51.108c-0.94,8.276-2.46,16.424-5.819,24.151
		c-0.915,2.104-1.549,4.47-1.664,6.749c-0.185,3.631-1.87,6.276-4.319,8.681c-3.94,3.871-7.654,7.875-8.934,13.548
		c-0.233,1.036-1.052,2.174-1.933,2.794c-6.634,4.668-12.588,10.244-18.797,15.37c-10.872,8.976-23.869,11.891-36.604,14.679
		c-11.494,2.518-23.85,3.052-34.918-3.605c-3.336-2.008-6.883-3.31-10.889-2.882c-0.646,0.068-1.568,0.164-1.94-0.193
		c-4.585-4.408-11.557-4.3-16.134-9.001c-8.992-9.234-20.164-16.225-26.834-27.871c-6.959-12.149-11.45-24.689-13.171-38.791
		c-1.416-11.597,2.779-22.601,1.179-33.947c1.158-2.198,2.16-4.466,3.639-6.506c2.423-3.345,3.29-7.149,3.251-11.296
		c-0.023-2.419,0.02-4.971,1.414-7.178c1-1.6,2.719-1.744,4.316-2.104c3.502-0.788,5.713-2.773,7.112-6.212
		c1.995-4.901,6.211-7.96,10.417-10.899c1.939,1.571,1.877,3.732,1.817,5.936c-0.611,22.826-0.157,45.657-0.241,68.485
		c-0.021,5.941,1.442,6.807,6.92,4.556c8.937-3.673,12.971-9.6,12.977-19.158c0.014-23.498-0.01-46.996,0.021-70.494
		c0.004-2.632-0.387-5.385,1.51-7.662c7.805-0.663,15.667-0.812,23.355-2.547c1.673,2.384,1.189,5.13,1.193,7.75
		c0.041,25.314,0.064,50.63-0.012,75.944c-0.015,5.003,0.715,9.973,0.443,14.971c-0.09,1.65,0.543,2.893,1.734,3.919
		c1.27,1.475,1.464,3.27,1.53,5.127c0.134,3.706-1.521,5.731-5.327,5.479c-12.299-0.816-20.383,6.486-28.111,14.486
		c-2.655,2.749-1.781,5.358,0.376,7.958c2.08,2.507,4.118,4.263,7.551,1.931c2.7-1.834,5.955-1.789,9.141-1.918
		c6.217-0.251,11.415-2.227,13.51-8.857c0.2-0.633,0.417-1.39,0.915-1.749c5.168-3.722,4.635-9.493,5.426-14.798
		c0.412-2.762,0.398-5.753,3.528-7.202c6.423-0.941,12.884-0.426,19.321-0.387c5.652,0.035,11.234-0.476,16.803-1.239
		c10.116-1.388,17.706-9.934,17.496-19.563c0.973-4.508-0.199-9.061,0.271-13.584c0.542-13.908,0.45-27.812,0.011-41.713
		C331.996,180.773,331.85,175.996,333.572,171.396z"/>
	<path fill-rule="evenodd" clip-rule="evenodd" fill="#182A7C" d="M242.994,161.564c0.037,27.812,0.068,55.622,0.127,83.434
		c0.004,1.726-0.336,3.276-1.346,4.697c-3.236,4.557-7.141,8.33-12.332,10.602c-8.422,3.683-9.438,2.955-9.361-6.025
		c0.197-23.145,0.299-46.29,0.398-69.436c0.007-1.644-0.319-3.289-0.49-4.934c7.052-5.258,10.687-14.389,19.716-17.398
		C240.787,162.144,241.897,161.875,242.994,161.564z"/>
	<path fill-rule="evenodd" clip-rule="evenodd" fill="#192A7C" d="M270.053,262.442c-3.991,0.667-3.617-1.982-3.617-4.579
		c-0.004-32.948-0.051-65.897-0.086-98.846c5.225-2.693,11.037-2.935,16.659-3.938c2.44-0.437,4.388,1.041,6.377,2.178
		c1.409,2.06,1.132,4.423,1.149,6.71c0.069,9.729-0.064,19.458,0.117,29.18c-6.598,15.948-8.12,33.565-16.125,49.088
		c-2.085,4.044-1.082,8.86-2.196,13.217C271.721,257.837,271.871,260.455,270.053,262.442z"/>
	<path fill-rule="evenodd" clip-rule="evenodd" fill="#182B7C" d="M333.572,171.396c0.005,17.546,0.016,35.092,0.003,52.637
		c-0.001,1.467,0.33,2.989-0.501,4.368c-2.287-0.249-2.749-2.287-3.424-3.846c-2.246-5.188-5.09-10.047-7.738-15.02
		c-2.675-5.022-5.045-10.196-11.609-11.111c-0.476-0.066-0.671-0.682-0.854-1.156c0.014-9.767,0.05-19.526,0.111-29.287
		c0.01-1.48,0.077-3,1.188-4.195C319.273,163.568,327.416,164.504,333.572,171.396z"/>
	<path fill-rule="evenodd" clip-rule="evenodd" fill="#FCFCFC" d="M310.748,163.785c-0.101,11.357-0.2,22.715-0.3,34.072
		c-2.485,1.903-3.89-0.479-5.602-1.463c-2.757-1.583-4.949-3.841-7.187-6.602c-2.049,2.482-3.356,6.309-7.628,4.453
		c-1.276-8.841-0.267-17.733-0.577-26.597c-0.122-3.461-0.052-6.929-0.069-10.393C296.121,160.695,303.698,161.376,310.748,163.785z
		"/>
	<path fill-rule="evenodd" clip-rule="evenodd" fill="#222E76" d="M198.145,199.118c1.083,9.606-0.51,18.323-8.304,24.979
		C191.026,215.245,193.766,206.909,198.145,199.118z"/>
	<path fill-rule="evenodd" clip-rule="evenodd" fill="#F3F4F6" d="M134.225,27.962c-2.617,0.624-3.652-0.899-3.599-4.396
		c0.047-3.099,0.657-4.715,4.125-4.254c3.001,0.398,6.91-0.549,7.134,4.071C142.116,28.109,138.267,27.61,134.225,27.962z"/>
	<path fill-rule="evenodd" clip-rule="evenodd" fill="#F9FAFA" d="M134.856,17.219c-3.036,0.562-4.106-0.47-4.149-3.646
		c-0.047-3.462,1.629-3.727,4.263-3.521c2.613,0.203,5.787-0.312,5.926,3.525C141.061,18.107,137.314,16.805,134.856,17.219z"/>
	<path fill-rule="evenodd" clip-rule="evenodd" fill="#F3F4F7" d="M238.041,17.898c-2.682,0.228-4.729,0.265-4.793-3.605
		c-0.066-4.056,1.71-4.637,5.049-4.364c3.077,0.252,7.238-0.565,7.254,3.791C245.568,18.279,241.262,17.749,238.041,17.898z"/>
	<path fill-rule="evenodd" clip-rule="evenodd" fill="#FCFCFC" d="M213.246,27.859c-2.426-1.439-3.908-3.65-5.036-6.151
		c-0.01-0.829-0.046-1.659-0.024-2.488c0.109-4.238,1.051-8.025,5.836-9.244c3.57-0.91,6.588,0.06,8.629,3.285
		c2.23,3.527,1.645,9.727-1.049,12.616C219.23,28.422,216.229,28.041,213.246,27.859z"/>
	<path fill-rule="evenodd" clip-rule="evenodd" fill="#EC7F04" d="M290.032,194.246c4.438-1.338,4.438-1.338,7.319-6.715
		c3.531,4.616,7.424,8.654,13.096,10.327c4.648-0.783,7.482,1.423,9.516,5.418c4.283,8.418,8.731,16.752,13.112,25.122
		c0.569,4.171,0.922,8.341,0.067,12.518c-2.764,3.283-4.435,3.48-6.915,0.249c-2.726-3.551-4.515-7.662-6.37-11.75
		c-2.556-5.631-3.797-12.109-9.368-15.994c-2.098-2.548-3.043-5.851-5.542-8.172c-5.113-4.747-10.313-3.676-12.748,2.74
		c-1.18,3.108-2.14,6.264-1.854,9.662c0.039,16.232-6.55,30.644-12.396,45.26c-2.734,4.472-2.504,9.52-2.568,14.438
		c-0.029,2.215-0.231,3.812-2.449,4.848c-1.52,0.71-2.797,2.078-3.109,3.735c-1.482,7.875-7.962,8.833-14.04,10.225
		c-3.999,0.916-8.782-1.025-11.805,3.426c-0.245,0.361-1.304,0.424-1.886,0.265c-4.13-1.134-5.613-5.067-7.716-8.069
		c-1.489-2.125,0.938-4.245,2.399-5.996c5.07-6.078,11.564-10.273,18.541-13.794c2.748-1.387,5.654-1.609,8.729-1.294
		c6.226,0.637,6.246,0.537,6.256-5.788c0.002-0.82-0.162-1.642-0.248-2.463c0.49-11.86,3.574-23.146,8.413-33.859
		c3.878-8.583,4.427-17.978,7.448-26.758C286.908,198.938,287.86,196.349,290.032,194.246z"/>
	<path fill-rule="evenodd" clip-rule="evenodd" fill="#182A7C" d="M277.949,262.911c1.17-6.521,2.43-12.854,5.959-18.801
		c4.322-7.282,3.27-16.093,5.044-24.142c0.317-1.442,0.188-2.983,0.265-4.479c3.438,3.069,2.34,7.104,1.997,10.777
		c-1.274,13.637-1.369,13.627,12.227,13.22c5.355-0.16,5.964-0.688,6.019-6.16c0.054-5.326,0.211-10.657-0.202-15.982
		c-0.135-1.747-0.728-3.756,1.584-4.729c6.729,2.965,7.196,10.11,9.879,15.579c1.88,3.831,3.854,7.67,5.688,11.548
		c1.54,3.256,3.975,3.729,6.733,1.173c1.253,9.945-8.035,19.869-19.883,21.213C301.514,263.462,289.729,263.054,277.949,262.911z"/>
	<path fill-rule="evenodd" clip-rule="evenodd" fill="#FDFDFD" d="M310.841,212.616c-0.103,7.947-0.372,15.898-0.229,23.842
		c0.061,3.413-0.821,4.737-4.411,4.479c-4.296-0.308-8.645-0.266-12.946,0.002c-3.212,0.199-3.904-1.084-3.86-4.019
		c0.107-7.132-0.101-14.27-0.18-21.417c0.482-2.277,0.938-4.547,1.449-6.804c0.945-4.173,2.777-7.288,7.722-7.617
		c4.913-0.326,7.723,2.518,10.066,6.081C309.527,208.798,310.062,210.787,310.841,212.616z"/>
</g>
</svg>
